<svg width="182" height="144" viewBox="0 0 182 144" fill="none" xmlns="http://www.w3.org/2000/svg">
<path d="M57.9022 94.3927H85.7224L56.2435 69.8144V33.8517L68.6835 24.1259L113.392 58.43V35.9627L69.1358 0L38.5261 25.5584V77.1276L57.9022 94.3927Z" fill="#FFE99C"/>
<path d="M94.468 4.97595H121.685L142.72 21.6379V73.3579L112.336 99.1424L67.251 62.5012V41.1648L111.733 75.9966L124.701 65.8939L124.55 29.8558L94.468 4.97595Z" fill="#FFE99C"/>
<path d="M0.0754592 143.248C0.452427 143.021 0.753998 142.569 0.980179 141.966C1.20636 141.363 1.35715 140.534 1.35715 139.629V129.752C1.35715 128.998 1.20636 128.32 0.980179 127.641C0.753998 126.963 0.452422 126.51 6.10352e-05 126.209V126.133H5.57918C5.57918 126.435 5.72997 126.736 5.80537 127.038C5.95615 127.34 6.18233 127.867 6.5593 128.471L10.1028 134.427C10.7813 135.558 11.5353 137.216 12.3646 139.327H12.44C12.2138 137.819 12.063 136.161 12.063 134.276V129.828C12.063 128.848 11.9122 128.094 11.6861 127.49C11.4599 126.887 11.1583 126.435 10.7813 126.209V126.133H16.4359V126.209C16.0589 126.435 15.7573 126.887 15.5311 127.49C15.3049 128.094 15.1542 128.923 15.1542 129.828V139.553C15.1542 140.458 15.3049 141.287 15.5311 141.891C15.7573 142.494 16.1343 142.946 16.4359 143.172V143.248H11.2337C10.9321 142.569 10.5552 141.74 10.0274 140.91L6.5593 135.256C5.95615 134.351 5.50379 133.447 5.12682 132.617C4.74986 131.788 4.37289 130.808 3.99592 129.677C4.14671 130.732 4.29749 131.712 4.37289 132.542C4.44828 133.371 4.44828 134.351 4.44828 135.407V139.553C4.44828 140.534 4.59907 141.287 4.82525 141.891C5.05143 142.494 5.35301 142.946 5.72997 143.172V143.248H0.0754592Z" fill="white"/>
<path d="M22.0149 141.815C20.884 140.534 20.2809 138.724 20.2809 136.236V129.828C20.2809 128.923 20.1301 128.094 19.9039 127.49C19.6777 126.887 19.3008 126.435 18.9992 126.209V126.133H24.9553V126.209C24.6537 126.435 24.3521 126.887 24.0506 127.49C23.8244 128.094 23.6736 128.923 23.6736 129.828V136.462C23.6736 138.121 23.9752 139.327 24.5029 140.006C25.0307 140.684 26.0108 141.061 27.3679 141.061C28.5742 141.061 29.4789 140.684 30.0067 139.93C30.5344 139.176 30.836 138.046 30.836 136.462V129.828C30.836 128.923 30.6852 128.169 30.459 127.49C30.2328 126.887 29.9313 126.435 29.5543 126.209V126.133H35.435V126.209C35.058 126.435 34.7565 126.887 34.5303 127.49C34.3041 128.094 34.1533 128.923 34.1533 129.828V136.236C34.1533 138.724 33.5502 140.609 32.4192 141.815C31.2883 143.021 29.4789 143.7 27.0663 143.7C24.8799 143.7 23.1458 143.097 22.0149 141.815Z" fill="white"/>
<path d="M53.1525 142.795L48.1011 143.775C47.7996 142.871 47.3472 141.966 46.8194 141.061L42.9744 134.502H44.1807C45.2362 134.502 46.0655 134.276 46.6687 133.748C47.1964 133.296 47.498 132.466 47.498 131.411C47.498 130.506 47.1964 129.828 46.6687 129.3C46.0655 128.772 45.3116 128.546 44.2561 128.546H42.522V139.629C42.522 140.534 42.6728 141.287 42.899 141.891C43.1252 142.494 43.4267 142.946 43.7283 143.172V143.248H37.7722V143.172C38.1492 142.946 38.4508 142.494 38.6769 141.891C38.9031 141.287 39.0539 140.458 39.0539 139.553V129.752C39.0539 128.848 38.9031 128.094 38.6769 127.49C38.4508 126.887 38.0738 126.435 37.7722 126.209V126.133H44.7838C46.744 126.133 48.2519 126.586 49.3828 127.49C50.5137 128.395 51.0415 129.677 51.0415 131.26C51.0415 132.542 50.7399 133.597 50.1367 134.427C49.5336 135.256 48.7043 135.784 47.6488 136.161L49.9106 139.855C50.8907 141.514 51.9462 142.418 53.1525 142.795Z" fill="white"/>
<path d="M69.5883 141.664C70.0406 142.418 70.493 142.946 70.87 143.248V143.323H65.2909V143.248C65.517 143.021 65.6678 142.645 65.6678 142.117C65.6678 141.589 65.517 140.986 65.2909 140.232L65.0647 139.629H58.7316L58.5054 140.232C58.2793 140.91 58.1285 141.514 58.1285 142.117C58.1285 142.72 58.2793 143.097 58.5054 143.248V143.323H53.3033V143.248C53.6803 142.946 54.0572 142.418 54.5096 141.664C54.9619 140.91 55.3389 140.157 55.6405 139.252L59.184 129.149C59.3348 128.697 59.4102 128.32 59.4102 127.943C59.4102 127.566 59.3348 127.264 59.184 126.963C59.0332 126.661 58.8824 126.435 58.7316 126.284V126.209H65.2909V126.284C65.1401 126.435 64.9893 126.661 64.8385 126.963C64.6877 127.264 64.6123 127.566 64.6123 127.943C64.6123 128.32 64.6877 128.697 64.8385 129.149L68.4574 139.252C68.759 140.157 69.1359 140.91 69.5883 141.664ZM61.3704 131.788C61.1442 132.542 60.8426 133.447 60.4657 134.577L59.5609 137.216H64.3107L63.406 134.577C63.0291 133.371 62.6521 132.466 62.5013 131.712C62.2751 131.034 62.1243 130.205 61.9735 129.375H61.8982C61.7474 130.28 61.5212 131.109 61.3704 131.788Z" fill="white"/>
<path d="M71.8501 143.248C72.227 143.021 72.5286 142.569 72.7548 141.966C72.981 141.363 73.1317 140.534 73.1317 139.629V129.752C73.1317 128.998 72.981 128.32 72.7548 127.641C72.5286 126.963 72.227 126.51 71.7747 126.209V126.133H77.3538C77.3538 126.435 77.5046 126.736 77.58 127.038C77.7308 127.34 77.9569 127.867 78.3339 128.471L81.8774 134.427C82.5559 135.558 83.3099 137.216 84.1392 139.327H84.2146C83.9884 137.819 83.8376 136.161 83.8376 134.276V129.828C83.8376 128.848 83.6868 128.094 83.4607 127.49C83.2345 126.887 82.9329 126.435 82.5559 126.209V126.133H88.2104V126.209C87.8335 126.435 87.5319 126.887 87.3057 127.49C87.0795 128.094 86.9288 128.923 86.9288 129.828V139.553C86.9288 140.458 87.0795 141.287 87.3057 141.891C87.5319 142.494 87.9089 142.946 88.2104 143.172V143.248H83.1591C82.8575 142.569 82.4805 141.74 81.9528 140.91L78.4847 135.256C77.8815 134.351 77.4292 133.447 77.0522 132.617C76.6752 131.788 76.2983 130.808 75.9213 129.677H75.8459C75.9967 130.732 76.1475 131.712 76.2229 132.542C76.2983 133.371 76.2983 134.351 76.2983 135.407V139.553C76.2983 140.534 76.4491 141.287 76.6752 141.891C76.9014 142.494 77.203 142.946 77.58 143.172V143.248H71.8501Z" fill="white"/>
<path d="M112.638 134.125C112.336 134.351 112.186 134.728 112.035 135.331C111.884 135.935 111.809 136.764 111.809 137.819V141.891C110.979 142.418 109.999 142.871 108.868 143.172C107.737 143.474 106.682 143.7 105.702 143.7C104.043 143.7 102.535 143.323 101.178 142.569C99.8965 141.815 98.841 140.835 98.087 139.478C97.3331 138.196 96.9561 136.688 96.9561 134.954C96.9561 133.07 97.3331 131.486 98.087 130.054C98.841 128.697 99.8965 127.641 101.329 126.887C102.686 126.133 104.269 125.756 106.154 125.756C107.888 125.756 109.396 125.983 110.829 126.435L111.205 130.431H111.13C109.848 128.998 108.19 128.32 106.079 128.32C104.345 128.32 103.063 128.848 102.083 129.978C101.103 131.109 100.65 132.617 100.65 134.577C100.65 136.538 101.103 138.046 102.083 139.176C102.988 140.307 104.269 140.91 105.928 140.91C106.983 140.91 107.888 140.76 108.642 140.383V136.387C106.983 136.387 105.777 136.839 104.948 137.669H104.872L105.249 133.899C105.777 133.974 106.757 134.05 108.265 134.05H112.638V134.125Z" fill="white"/>
<path d="M130.054 142.795L125.002 143.775C124.701 142.871 124.249 141.966 123.721 141.061L119.876 134.502H121.082C122.138 134.502 122.967 134.276 123.57 133.748C124.098 133.296 124.399 132.466 124.399 131.411C124.399 130.506 124.098 129.828 123.57 129.3C122.967 128.772 122.213 128.546 121.157 128.546H119.423V139.629C119.423 140.534 119.574 141.287 119.8 141.891C120.027 142.494 120.328 142.946 120.63 143.172V143.248H114.674V143.172C115.051 142.946 115.352 142.494 115.578 141.891C115.804 141.287 115.955 140.458 115.955 139.553V129.752C115.955 128.848 115.804 128.094 115.578 127.49C115.352 126.887 114.975 126.435 114.674 126.209V126.133H121.685C123.645 126.133 125.153 126.586 126.284 127.49C127.415 128.395 127.943 129.677 127.943 131.26C127.943 132.542 127.641 133.597 127.038 134.427C126.435 135.256 125.606 135.784 124.55 136.161L126.812 139.855C127.792 141.514 128.923 142.418 130.054 142.795Z" fill="white"/>
<path d="M134.351 142.645C132.994 141.891 132.014 140.835 131.336 139.478C130.657 138.121 130.28 136.613 130.28 134.954C130.28 133.145 130.657 131.486 131.411 130.129C132.165 128.772 133.22 127.641 134.577 126.887C135.935 126.133 137.593 125.756 139.478 125.756C141.212 125.756 142.72 126.133 144.077 126.887C145.434 127.641 146.414 128.697 147.168 129.978C147.922 131.336 148.299 132.843 148.299 134.577C148.299 136.387 147.922 137.97 147.168 139.403C146.414 140.835 145.359 141.891 143.926 142.645C142.569 143.398 140.911 143.775 139.176 143.775C137.216 143.775 135.633 143.398 134.351 142.645ZM141.966 140.458C142.795 139.93 143.399 139.176 143.851 138.196C144.303 137.216 144.529 136.085 144.529 134.804C144.529 132.768 144.077 131.109 143.097 129.978C142.117 128.848 140.835 128.244 139.176 128.244C138.121 128.244 137.216 128.546 136.387 129.074C135.633 129.601 135.03 130.355 134.577 131.336C134.125 132.316 133.974 133.447 133.974 134.728C133.974 136.764 134.427 138.423 135.331 139.553C136.236 140.684 137.593 141.287 139.327 141.287C140.232 141.212 141.137 140.911 141.966 140.458Z" fill="white"/>
<path d="M153.2 141.815C152.069 140.534 151.466 138.724 151.466 136.236V129.828C151.466 128.923 151.315 128.094 151.089 127.49C150.863 126.887 150.486 126.435 150.184 126.209V126.133H156.14V126.209C155.838 126.435 155.537 126.887 155.235 127.49C155.009 128.094 154.858 128.923 154.858 129.828V136.462C154.858 138.121 155.16 139.327 155.688 140.006C156.215 140.684 157.196 141.061 158.553 141.061C159.759 141.061 160.664 140.684 161.191 139.93C161.719 139.176 162.021 138.046 162.021 136.462V129.828C162.021 128.923 161.87 128.169 161.644 127.49C161.418 126.887 161.116 126.435 160.739 126.209V126.133H166.62V126.209C166.243 126.435 165.941 126.887 165.715 127.49C165.489 128.094 165.338 128.923 165.338 129.828V136.236C165.338 138.724 164.735 140.609 163.604 141.815C162.473 143.021 160.664 143.7 158.251 143.7C156.065 143.7 154.406 143.097 153.2 141.815Z" fill="white"/>
<path d="M180.341 127.641C181.397 128.621 182 129.978 182 131.788C182 133.748 181.472 135.256 180.417 136.236C179.361 137.216 177.853 137.744 175.818 137.744H173.782V139.78C173.782 140.684 173.933 141.438 174.159 142.041C174.385 142.645 174.762 143.097 175.064 143.323V143.398H169.032V143.323C169.409 143.097 169.711 142.645 169.937 142.041C170.163 141.438 170.314 140.609 170.314 139.704V129.903C170.314 128.998 170.163 128.244 169.937 127.641C169.711 127.038 169.334 126.586 169.032 126.36V126.284H175.742C177.703 126.209 179.21 126.661 180.341 127.641ZM178.457 131.939C178.457 130.808 178.155 129.978 177.627 129.451C177.099 128.923 176.27 128.621 175.139 128.621H173.707V135.181H175.139C177.326 135.256 178.457 134.125 178.457 131.939Z" fill="white"/>
</svg>
